<svg xmlns="http://www.w3.org/2000/svg" viewBox="0 0 540.31 260.29"><defs><style>.cls-1{fill:#fca5a5;}</style></defs><title>Voyage Logo</title><g id="Layer_2" data-name="Layer 2"><g id="Layer_1-2" data-name="Layer 1"><path class="cls-1" d="M36.1,246.86a18.27,18.27,0,0,0,1.39-3.38c4-19.67,10.67-38.5,18.23-57,16.17-39.6,36.19-77.14,61.15-111.94,11-15.36,23.09-29.85,37.27-42.46C164.37,23,175.3,15,188.13,9.87c7.5-3,15.2-4.89,23.37-4.53,15.22.68,25.88,10.46,28,25.55,1.21,8.62.38,17.1-1.07,25.58-.13.76-.24,1.53-.42,2.7a17.67,17.67,0,0,0,2.12-.43C279,45.23,318.67,34.47,358.64,24.86c19.75-4.76,39.64-9,59.59-12.87,15-2.91,30.19-5.08,45.34-7.18Q481.23,2.37,499,1a246.27,246.27,0,0,1,36.34-.5,14.66,14.66,0,0,1,3.39.46c1.9.62,2.07,1.89.56,4a5.88,5.88,0,0,1-1.6-.16c-3.65-1.32-7.41-1.23-11.19-1.07-3.54.15-7.08.23-10.62.46-10.83.73-21.68,1.29-32.49,2.34-10,1-20,2.3-29.91,3.85-14.55,2.27-29.12,4.55-43.57,7.41C360.6,27.45,312,40.29,264,54.94c-12.23,3.73-24.43,7.61-36.08,12.94-4.24,1.94-8.31,4.27-12.39,6.55-2.39,1.33-2.68,1.43-4.78-.15-.35-1.74,1-2.5,2.11-3.14q5.53-3.09,11.18-6c2.34-1.17,4.79-2.12,7.35-3.23,1.84-10,3.13-20,1.21-30.2-1.22-6.45-4.05-12.14-9.36-16.28a24,24,0,0,0-17.39-4.85c-6.6.55-12.67,2.83-18.59,5.62-11.62,5.47-21.58,13.26-30.89,22-13.51,12.65-25,27-35.5,42.19-24,34.6-42.9,72-59.11,110.75A359.39,359.39,0,0,0,43.8,247.94c-.65,2.77-1.58,5.48-2.46,8.19a5.45,5.45,0,0,1-3.71,3.77c-3.64,1-6.22.21-7.41-3.47A135.6,135.6,0,0,1,26,241.27c-4.92-24.29-9.61-48.62-14.48-72.92C8.72,154.24,5,140.34,1,126.53c-.32-1.1-.62-2.2-.87-3.31a2.24,2.24,0,0,1,1.38-2.8,2.37,2.37,0,0,1,3.05.84,9,9,0,0,1,1.07,2.48A544.06,544.06,0,0,1,20.44,179.3c4.43,21,8.77,42,13.21,63C34,243.91,33.84,245.87,36.1,246.86Z"/><path class="cls-1" d="M140.53,175.13c1.81-1.07,3-1.52,3.87-2.35a105.23,105.23,0,0,0,7.84-8.11c3-3.53,6.08-6.88,10-9.27a18,18,0,0,1,5.73-2.09,4,4,0,0,1,4.76,2.94,2.68,2.68,0,0,1-.3,2.21,3.27,3.27,0,0,1-2.44.69,7.48,7.48,0,0,1-2.35-1.2c-6.12,1.47-13.85,12-12.94,17.59,2-.11,3.28-1.51,4.47-2.86,2.41-2.75,4.71-5.6,7.06-8.41,1.58-1.89,3.42-3,6-1.91,1.74,3.07-1.09,6.62,1.25,10,4.8.06,7.11-3.51,9.62-6.84a18.37,18.37,0,0,1,4.41-12.72,17.9,17.9,0,0,1,12.91-6.95c2.63-.21,5.25-.23,7.66-1.55.5-.28,1.29,0,1.82,0,1.42,1.61.82,3.2.42,4.72-1.15,4.41-2.41,8.8-3.55,13.23a34.82,34.82,0,0,0-.49,4.18c1.89-1.07,3.22-1.71,4.43-2.52,4.87-3.21,9.72-6.44,14.52-9.75a11.25,11.25,0,0,0,2.26-2.49,20.06,20.06,0,0,1,14.13-8.16c1.89-.22,3.73-.11,4.86,1.72s.57,3.55-.32,5.21a11.37,11.37,0,0,1-8.26,6.09c-2.24.43-4.52.63-6.77.93-1.6,3.74-.4,6,3.46,6.56a14.06,14.06,0,0,0,8-1.43,24.46,24.46,0,0,0,8.56-6.74c1.24-1.5,2.39-3.07,3.65-4.55.78-.92,1.69-1.72,2.89-2.92.32,1.16.75,1.83.6,2.35a12.41,12.41,0,0,1-1.5,3.79c-5,7.49-11.7,12.42-20.94,13.28l-.34,0c-7.66.6-10.48-1.79-11-9.57l-11.72,8.57a22.46,22.46,0,0,1-2.78,2c-4.51,2.33-6.2,6.2-7,11-1.51,9.48-3.54,18.87-7.4,27.73a65.94,65.94,0,0,1-3.4,6.71c-4.84,8.31-12.45,12.12-21.73,13.06-4.11.42-8.28.53-12.24-.77a22,22,0,0,1-6.29-3.31c-2.7-2-3.19-4.58-1.76-7.63a21,21,0,0,1,3.09-4.91,99.92,99.92,0,0,1,8.3-8.66A419,419,0,0,1,195,175c1.66-1.2,3.43-2.36,3.88-4.59a11,11,0,0,0,0-1.68,15.59,15.59,0,0,0-2.31.8c-1.1.61-2.08,1.43-3.2,2-3.07,1.51-5.78,2.43-8.82-.8-2.51,1.57-4.85,3.41-7.48,4.59-5.24,2.34-7.55,1.31-10.06-4-1.42,1.55-2.78,3.08-4.19,4.57a15,15,0,0,1-8.64,4.55c-4.28.72-6.1-.64-6.86-5.29-2.47,1.74-5,3.24-7.13,5.11a6.58,6.58,0,0,0-1.71,3.58c-1.19,5.94-2.06,11.94-3.36,17.85a128.46,128.46,0,0,1-4,14.84c-3.81,10.94-12,16.47-23.21,18.27a50.27,50.27,0,0,1-19.74-.86,21,21,0,0,1-6-2.46c-3.28-2-4.17-4.88-2.42-8.23a29.53,29.53,0,0,1,4.55-6.38c7.19-7.77,15.66-14,24.33-20,7.25-5,14.61-9.83,21.94-14.71,1.69-1.12,3.07-2.33,2.28-5.06-1.27,1-2.34,1.88-3.35,2.77a13.3,13.3,0,0,1-8.16,3.16c-3,.19-4.77-1.22-5.44-4.11-1.35-5.82.23-11.1,3.12-16.08a2.93,2.93,0,0,1,4.12-1.35c.9,1.9-.22,3.58-.72,5.24a23,23,0,0,0-1.13,9.46c.14,1.17.24,2.31,1.93,2.77a11.81,11.81,0,0,0,5.35-4.22A47.76,47.76,0,0,0,135.9,162a17.66,17.66,0,0,1,1.27-2.8c.94-1.58,2.78-2.32,4.06-1.69,1.55.76,1.48,2.11,1.22,3.54-.6,3.26-1.18,6.52-1.7,9.79C140.58,172,140.63,173.08,140.53,175.13ZM131,186.46c-1.26.71-2.1,1.08-2.84,1.6-8.51,6-17.09,11.84-25.48,18-5.52,4.05-11,8.19-15.33,13.64a19.7,19.7,0,0,0-2.56,4c-1,2.16-.44,3.72,1.53,5a11.57,11.57,0,0,0,2.46,1.17,36.79,36.79,0,0,0,22.26.74c4.68-1.32,8.61-3.85,11-8.15,1.82-3.27,3.74-6.65,4.64-10.23,1.95-7.74,3.28-15.63,4.81-23.47A7.33,7.33,0,0,0,131,186.46ZM196.8,179l-.91-.43c-1.21.78-2.46,1.51-3.62,2.37-1.36,1-2.65,2.18-4,3.28-8.15,6.83-16.35,13.6-24.41,20.54a42.48,42.48,0,0,0-6,6.59c-3.8,5-2.8,8.16,3.15,10.38,4.7,1.75,9.46,1.17,14.2.23a15.38,15.38,0,0,0,7-3.53,24.41,24.41,0,0,0,5.89-7.5,92.51,92.51,0,0,0,8.63-27A29.31,29.31,0,0,0,196.8,179Zm-6.19-10.51a14.49,14.49,0,0,0,3.1-1.55,26.09,26.09,0,0,0,7.7-10.69,9.67,9.67,0,0,0,.63-2.65c.23-2.36-1.72-5.12-4.86-3.32a12.26,12.26,0,0,0-1.72,1.1,19.32,19.32,0,0,0-6.72,12.3A4.51,4.51,0,0,0,190.61,168.48Zm50-21.12c-4,.67-6.13,2.22-7.41,5.3a5.36,5.36,0,0,0,6.48-.69C241.25,150.63,241.46,149.68,240.66,147.36Z"/><path class="cls-1" d="M327.13,50.58c-1.2,10.21-2.38,20.42-3.62,30.62-.46,3.73-1.47,7.39-.62,11.22a5.73,5.73,0,0,1-.5,3.34c-2.73,6.15-3.4,12.78-4.66,19.26-5.84,30-12,60-21.35,89.21-2.41,7.48-5.31,14.82-8.16,22.16a37.09,37.09,0,0,1-3.56,6.22,4.71,4.71,0,0,1-3.64,2.28c-3.06.29-4.56-.88-4.63-4a29.36,29.36,0,0,1,.39-6.15c7.62-39,18.4-77,33.9-113.67a83.75,83.75,0,0,0,5.57-21.47c1.13-8.26,2.37-16.51,3.28-24.8.7-6.36,1-12.76,1.44-19.15,0-.68.08-1.37.16-2.05a2.43,2.43,0,0,1,2.44-2.4,2.39,2.39,0,0,1,2.67,2.15c.33,2.36.42,4.76.6,7.15Zm-21.56,88.06q-.81,2.24-1.61,4.48c-7,20.17-12.32,40.8-17.15,61.57-.85,3.67-1.75,7.32-2.51,11-.25,1.22-.9,2.65.79,3.86A460.37,460.37,0,0,0,305.57,138.64Z"/><path class="cls-1" d="M374.38,137.19c-2.47,2.89-4.78,5.56-7,8.27a13.41,13.41,0,0,1-7,4.65c-3.77,1-6-.57-6.35-4.47a26.78,26.78,0,0,1,.18-5.8,91.77,91.77,0,0,1,4.26-16.43c3.64-.9,4.82,0,4.18,3.31-.81,4.15-1.78,8.26-2.7,12.38-.67,3.07-.7,3.6-.14,6.06a7.57,7.57,0,0,0,2.31-1,35.5,35.5,0,0,0,4.33-4.85c3.13-4.49,6.09-9.12,9.12-13.68a27,27,0,0,1,2.13-3.1c1.55-1.74,2.72-1.84,5.24-.59.78,5.55-2.25,11-1.07,17.26a14.69,14.69,0,0,0,3.31-1.57c3.37-2.91,6.68-5.9,9.89-9a8.06,8.06,0,0,0,1.63-3c1-2.55,1.83-5.16,2.77-7.73.56-1.53,1.21-3,3.58-3.21l2.9,3.06c4.2-1.41,8-5,13.24-3.06.72-4.49,4.1-6.11,8.19-6.72,2.94-.44,5.43.37,7,3.08-1,2.3-1.66,2.7-3.39,1.93-.73-.32-1.34-.89-2.05-1.25-2-1-3.66-.29-4.15,1.91a8.45,8.45,0,0,0,0,3.36c.44,2.21,2.7,5.5,5.1,7.57l15.06-8.15c.25,1.06.42,1.76.61,2.54-4.49,3.1-9.49,5.25-13.43,9.38.61,1.3,1.13,2.53,1.76,3.7,3.43,6.34,2.47,9.89-4,13a68.62,68.62,0,0,1-9.95,3.61,11.84,11.84,0,0,1-4.41.26c-3.88-.36-5.73-3.37-3.94-6.8a25.5,25.5,0,0,1,4.41-5.61c2.06-2.13,4.43-4,6.54-6s2.13-2.84.6-5.39c-1.06-1.75-2.15-3.49-3.44-5.57-.73,2-1.78,3.5-4.19,4-.38-1.76-.73-3.43-1.19-5.57a30.71,30.71,0,0,0-3.31,1.52,19,19,0,0,0-6.83,6.62c-2.45,4.25-4.71,8.6-7.07,12.9-1.41,2.55-1.91,2.74-5.07,2a15.42,15.42,0,0,1,0-1.92,25.62,25.62,0,0,1,.65-2.58,47.25,47.25,0,0,1-3.71,3.33,30.73,30.73,0,0,1-5.77,3.58c-3.23,1.34-6.11,0-7.63-3.19C375.15,139.31,374.84,138.36,374.38,137.19Zm41.75,6.93a16.63,16.63,0,0,0,12.11-3.48,4.19,4.19,0,0,0,1.05-3.32,18.19,18.19,0,0,0-1.55-4.23C423.91,133.87,417.63,139.87,416.13,144.12Z"/><path class="cls-1" d="M336.25,150.59c-7.38.17-10.39-3.84-7.74-10.74a40.41,40.41,0,0,1,4.39-7.67,5.42,5.42,0,0,1,5-2.44,7.79,7.79,0,0,0,3.86-1.05,13.54,13.54,0,0,1,4.59-1.15c4.29-.28,7.1,2.78,6.75,7.09A17.9,17.9,0,0,1,336.25,150.59Zm11-18.07c-2.88-1.59-5.8-1-8.6,1.46-4.08,3.6-5.69,8.78-3.91,12.87,2.73,1.12,4.82-.47,6.67-2.09C345,141.59,347.53,137.77,347.22,132.52Z"/><path class="cls-1" d="M95.68,189.73c-7,.07-10-3.81-7.59-10.39a38.58,38.58,0,0,1,4.28-7.74A6.33,6.33,0,0,1,98,168.8a13.49,13.49,0,0,0,3.2-.83,27.52,27.52,0,0,1,4.9-1.3c4.31-.31,7.13,2.73,6.8,7.05A17.88,17.88,0,0,1,95.68,189.73ZM107,171.65c-2.88-1.59-5.8-1-8.6,1.46-4.08,3.6-5.69,8.78-3.91,12.87,2.73,1.12,4.82-.47,6.67-2.09C104.76,180.72,107.26,176.9,107,171.65Z"/></g></g></svg>