<svg xmlns="http://www.w3.org/2000/svg" viewBox="0 0 124.16 119.74"><defs><style>.cls-1{fill:#fca5a5;}</style></defs><title>Voyage Favicon</title><g id="Layer_2" data-name="Layer 2"><g id="Layer_1-2" data-name="Layer 1"><path class="cls-1" d="M0,62.8a6.21,6.21,0,0,1,1-.95c1.22-.69,2.56.09,2.75,1.65s.29,3.2.37,4.81a1.91,1.91,0,0,1-1.73,2.2,2,2,0,0,1-2-1.85C.28,67.84.14,67,0,66.19Z"/><path class="cls-1" d="M96.72,28.49c-1,1.9-2.07,3.64-3,5.43-.15.29.1.92.34,1.25A44.55,44.55,0,0,1,97.9,81.7a43.72,43.72,0,0,1-23.83,21.49,42.21,42.21,0,0,1-24,2.17C33.8,102,22.27,92.65,16.47,77.16s-3.36-30,6.66-43.09A42.66,42.66,0,0,1,51,17.57a43.35,43.35,0,0,1,30.86,6.27c.62.38,1.23.77,1.84,1.16a3,3,0,0,0,.37.14C84.71,23,85.37,21,86,18.85c.07-.26-.24-.71-.5-1q-3.65-3.63-7.35-7.21a3.65,3.65,0,0,0-1.16-.6c-.74-.31-1.53-.53-2.24-.89A1.68,1.68,0,0,1,73.8,7a1.72,1.72,0,0,1,1.93-1.3c.36,0,.72.11,1,.15a23,23,0,0,1,1.83-3.25,6.41,6.41,0,0,1,10-.42c1.9,2,3.8,4,5.63,6A2,2,0,0,0,96.7,9c6-1.88,12-3.63,17.93-5.5a2.83,2.83,0,0,1,3.34.87c1,1.17,2.22,2.23,3.32,3.35,1.45,1.47,1.31,2.66-.49,3.67-4.86,2.72-9.73,5.41-14.6,8.12-.25.14-.48.3-.87.54l2.83,3c1.19,1.27,2.4,2.51,3.56,3.8a1.26,1.26,0,0,0,1.57.43c1.52-.53,3.09-.93,4.62-1.42a2.35,2.35,0,0,1,2.74.67c.88,1,1.85,1.92,2.75,2.91,1.15,1.25,1,2.44-.49,3.27-2.64,1.49-5.32,2.89-8,4.38a3.51,3.51,0,0,0-1.24,1.24c-1.43,2.53-2.79,5.09-4.19,7.64-1,1.92-2.12,2.06-3.68.5-.91-.91-1.82-1.84-2.74-2.74a2.14,2.14,0,0,1-.6-2.42q.81-2.4,1.46-4.86a1.53,1.53,0,0,0-.24-1.25C101.47,32.94,99.16,30.79,96.72,28.49ZM66.86,21.41l-.13.29.57.91a12,12,0,0,1,1.43,10.64,21,21,0,0,1-5.45,8.48c-4.7,4.5-9.62,8.77-14.34,13.24a29.53,29.53,0,0,0-4,4.93c-1,1.53-.7,3,.59,4.3a8.84,8.84,0,0,0,2,1.57c1.7.93,3.5,1.67,5.16,2.66A33.24,33.24,0,0,1,58,72.06c2.43,2.16,1.69,5.13-1.39,6.24a24.09,24.09,0,0,1-15.13.15c-4.9-1.42-9-4.26-12.87-7.52-2.92-2.47-5.91-4.88-8.91-7.27a8.1,8.1,0,0,0-2-.82c.41,25,24.72,44.25,49.54,38.28,0-1.69-.13-3.38,0-5.05.47-4.76,3.1-8.46,6.32-11.71s6.7-6.09,9.88-9.3,5.43-6.88,5.84-11.53c.2-2.3.55-4.69,2.38-6.33a41.09,41.09,0,0,1,5.34-3.91,1.44,1.44,0,0,0,.77-1.91,41.19,41.19,0,0,0-5.71-12.76c-.16-.24-.36-.45-.59-.74C90.34,40,89.24,42,88.1,44c-.92,1.63-2.07,1.8-3.39.51S82.2,42,80.9,40.81A2.46,2.46,0,0,1,80.19,38c.87-2.73,1.65-5.48,2.52-8.21a1,1,0,0,0-.47-1.39,39.48,39.48,0,0,0-9.58-5.13C70.75,22.56,68.79,22,66.86,21.41ZM55.46,74.69a16.89,16.89,0,0,0-4.81-3.16c-2.14-1.12-4.36-2.12-6.38-3.44-4-2.59-4.8-6.22-2.49-10.37a9.88,9.88,0,0,1,1.6-2.27c2.67-2.63,5.35-5.27,8.14-7.77,3.77-3.36,7.77-6.48,10.87-10.51,2.06-2.68,3.54-5.62,2.87-9.18A12.8,12.8,0,0,0,61,21.09a1.51,1.51,0,0,0-.88-.28,39.56,39.56,0,0,0-21.32,4.88,40,40,0,0,0-20,25.87c-.64,2.43-.87,5-1.31,7.56A10.94,10.94,0,0,1,23.8,62c2.64,2.2,5.22,4.47,7.86,6.66,4.62,3.83,9.64,6.79,15.83,7.13A17.25,17.25,0,0,0,55.46,74.69Zm51.89-32.18c1.17-2.15,2.37-4.22,3.43-6.34A4.69,4.69,0,0,1,113,33.93c2.12-1.07,4.18-2.25,6.27-3.39a1.25,1.25,0,0,0-1.8-.75c-1.45.51-2.95.84-4.39,1.36a2.59,2.59,0,0,1-3.13-.81c-2.77-3-5.61-6-8.43-9-1.55-1.67-1.4-2.69.58-3.79l10.41-5.71,4.85-2.69c-1.53-2.1-1.53-2.1-3.76-1.43C107.75,9.46,101.88,11.2,96,13a2.67,2.67,0,0,1-3.12-.85C90.64,9.7,88.35,7.24,86,4.89a4,4,0,0,0-2.42-1A3,3,0,0,0,80.76,6a2.6,2.6,0,0,0,.8,3.07c2.46,2.33,4.91,4.68,7.42,7a2.67,2.67,0,0,1,.82,3.13C87.89,25.31,86,31.45,84.2,37.59a1.92,1.92,0,0,0,0,1.32,13.41,13.41,0,0,0,1.54,1.79c.39-.67.62-1.05.83-1.43L94.5,25.11c1-1.72,2-1.9,3.47-.56,3.13,2.92,6.23,5.88,9.37,8.79a2.38,2.38,0,0,1,.69,2.73c-.49,1.54-.89,3.11-1.42,4.63A1.31,1.31,0,0,0,107.35,42.51ZM71,100.12c20.51-6.59,30.3-27.41,27.59-43.62C95.69,58.09,93.26,60,93,63.65,92.62,69.45,89.72,74,85.73,78c-2.09,2.08-4.27,4.07-6.5,6a31.66,31.66,0,0,0-6.4,7.22A12.48,12.48,0,0,0,71,100.12Z"/><path class="cls-1" d="M112.74,64.09c.07-1.1.1-2.07.21-3a1.78,1.78,0,0,1,1.94-1.73,1.76,1.76,0,0,1,1.77,1.89c0,1.81-.08,3.63-.23,5.44a1.82,1.82,0,0,1-2,1.8,1.88,1.88,0,0,1-1.72-2.09c0-.4,0-.8,0-1.21Z"/><path class="cls-1" d="M47.34,118.81c-1.56-.4-3.48-.82-5.36-1.4a1.71,1.71,0,0,1-1.1-2.24A1.75,1.75,0,0,1,43,113.9c1.77.37,3.53.76,5.29,1.2a1.81,1.81,0,0,1,1.48,2.13C49.63,118.23,48.84,118.83,47.34,118.81Z"/><path class="cls-1" d="M48.08,7.83c-1.59.07-2.38-.51-2.52-1.52a1.79,1.79,0,0,1,1.49-2.14c1.78-.33,3.57-.6,5.37-.78a1.86,1.86,0,1,1,.49,3.69C51.17,7.4,49.41,7.63,48.08,7.83Z"/><path class="cls-1" d="M.46,53.62c.23-1.28.51-3.07.9-4.84a1.85,1.85,0,0,1,2.27-1.47A1.92,1.92,0,0,1,5,49.55c-.27,1.67-.56,3.33-.88,5A1.88,1.88,0,0,1,2,56.28C1,56.13.41,55.34.46,53.62Z"/><path class="cls-1" d="M62.74,3.13c1.26.15,2.75.3,4.22.52a1.94,1.94,0,0,1,1.86,2.12,2,2,0,0,1-2.29,1.68c-1.61-.14-3.21-.32-4.81-.56-1.38-.21-2-1-1.88-2.17s.93-1.62,2.31-1.59Z"/><path class="cls-1" d="M40.89,8.72c-.24.27-.58,1-1.14,1.26-1.58.79-3.22,1.45-4.87,2.08a1.79,1.79,0,0,1-2.44-.93,1.77,1.77,0,0,1,.9-2.44,50.55,50.55,0,0,1,5-2.11C39.65,6.11,40.86,7,40.89,8.72Z"/><path class="cls-1" d="M90.49,109.51a5,5,0,0,1-1.08,1.31c-1.34.89-2.76,1.66-4.18,2.43a1.91,1.91,0,0,1-2.74-.64A1.84,1.84,0,0,1,83.3,110a49.5,49.5,0,0,1,4.4-2.53C89.1,106.81,90.46,107.66,90.49,109.51Z"/><path class="cls-1" d="M59.49,115.89c.8,0,1.61,0,2.42,0a1.79,1.79,0,0,1,1.85,1.72,1.7,1.7,0,0,1-1.57,1.94,54.45,54.45,0,0,1-5.57.17,1.72,1.72,0,0,1-1.73-1.83A1.74,1.74,0,0,1,56.58,116a28.23,28.23,0,0,1,2.91,0Z"/><path class="cls-1" d="M4.63,75.56c.28.27,1,.7,1.3,1.33a46,46,0,0,1,1.69,4.79,1.88,1.88,0,0,1-1.09,2.39,1.82,1.82,0,0,1-2.41-1,54.21,54.21,0,0,1-1.78-5.26C2,76.6,2.92,75.6,4.63,75.56Z"/><path class="cls-1" d="M24.26,104.79c0,1.68-1.59,2.69-2.72,1.84a38.56,38.56,0,0,1-4.47-4,1.62,1.62,0,0,1,.15-2.39,1.61,1.61,0,0,1,2.29-.24c1.49,1.22,2.9,2.54,4.3,3.86A2.38,2.38,0,0,1,24.26,104.79Z"/><path class="cls-1" d="M101.58,100a9.41,9.41,0,0,1-1,1.67c-1,1.11-2.15,2.18-3.28,3.22a1.93,1.93,0,0,1-2.89.06,1.91,1.91,0,0,1,.28-2.79,40.68,40.68,0,0,1,3.5-3.33,2.61,2.61,0,0,1,2.07-.31C100.78,98.63,101.11,99.39,101.58,100Z"/><path class="cls-1" d="M17.84,24.09A12.64,12.64,0,0,1,17,25.77c-.86,1.16-1.77,2.29-2.69,3.4s-2,1.29-2.84.63-1-1.8-.16-3,2-2.53,3-3.76a1.62,1.62,0,0,1,2.16-.49A7.51,7.51,0,0,1,17.84,24.09Z"/><path class="cls-1" d="M36.17,112.24c0,1.73-1.34,2.66-2.64,2.05a52.27,52.27,0,0,1-4.78-2.56,1.85,1.85,0,0,1,1.72-3.27,51.05,51.05,0,0,1,4.88,2.64C35.79,111.37,36,112,36.17,112.24Z"/><path class="cls-1" d="M14.75,94.8c-.44.51-.8,1.26-1.35,1.46a2.16,2.16,0,0,1-1.93-.3,42.84,42.84,0,0,1-3.34-5,1.45,1.45,0,0,1,.68-2.07c.6-.26,1.78-.35,2.06,0,1.33,1.69,2.45,3.55,3.64,5.35.05.09,0,.24,0,.36Z"/><path class="cls-1" d="M6.15,42.61c-1.56,0-2.56-1.19-2.14-2.33a52.15,52.15,0,0,1,2.3-5.19,1.71,1.71,0,0,1,2.4-.74,1.76,1.76,0,0,1,.91,2.36,48,48,0,0,1-2.2,4.85C7.14,42.08,6.44,42.39,6.15,42.61Z"/><path class="cls-1" d="M115,75.79c-.57,1.73-1.12,3.66-1.86,5.53a1.61,1.61,0,0,1-2.26.78,1.66,1.66,0,0,1-1.13-2c.47-1.79,1-3.56,1.63-5.3a1.69,1.69,0,0,1,2.17-1.06C114.46,73.93,114.84,74.65,115,75.79Z"/><path class="cls-1" d="M21.9,20c-.42-.38-1.18-.75-1.36-1.31a2.24,2.24,0,0,1,.35-2,40.65,40.65,0,0,1,4.49-3.43,1.65,1.65,0,0,1,2.35.49,1.59,1.59,0,0,1-.08,2.29c-1.5,1.27-3.11,2.41-4.69,3.58A4,4,0,0,1,21.9,20Z"/><path class="cls-1" d="M105.46,94.89c-1.62,0-2.63-1.31-2-2.49a46.18,46.18,0,0,1,3-4.94,1.83,1.83,0,0,1,3.1,1.88,52.7,52.7,0,0,1-3,4.92C106.27,94.64,105.67,94.78,105.46,94.89Z"/><path class="cls-1" d="M115.92,51.84c0,1.29-.51,2-1.5,2.19a1.68,1.68,0,0,1-2.1-1.21,52.82,52.82,0,0,1-1.17-5.42,1.69,1.69,0,0,1,1.42-2,1.64,1.64,0,0,1,2.13,1.13C115.22,48.39,115.56,50.25,115.92,51.84Z"/><path class="cls-1" d="M71.22,118.34c-1.22,0-1.91-.47-2.16-1.41a1.66,1.66,0,0,1,1.06-2.17,54.57,54.57,0,0,1,5.47-1.49,1.64,1.64,0,0,1,1.94,1.29,1.63,1.63,0,0,1-.9,2.14C74.78,117.37,72.86,117.85,71.22,118.34Z"/></g></g></svg>